<svg width="550" height="136" viewBox="0 0 550 136" fill="none" xmlns="http://www.w3.org/2000/svg">
<path d="M140.381 34.2197C140.137 34.2197 140.015 34.1025 140.015 33.8682L140.381 30.8066C140.42 30.5918 140.547 30.4746 140.762 30.4551C142.285 30.2988 143.291 30.0596 143.779 29.7373C144.268 29.4053 144.512 28.751 144.512 27.7744C144.512 26.7979 144.263 25.5283 143.765 23.9658C143.267 22.3936 142.944 21.3486 142.798 20.8311C142.329 19.1709 142.095 17.8135 142.095 16.7588C142.095 15.6943 142.266 14.7861 142.607 14.0342C142.949 13.2822 143.437 12.6816 144.072 12.2324C145.303 11.373 146.958 10.9434 149.038 10.9434C149.302 10.9434 149.434 11.0654 149.434 11.3096L149.038 14.3418C148.999 14.5859 148.877 14.7178 148.672 14.7373C146.777 14.8643 145.83 15.4258 145.83 16.4219C145.83 17.3398 146.23 19.1465 147.031 21.8418C147.842 24.5273 148.247 26.4512 148.247 27.6133C148.247 32.0176 145.625 34.2197 140.381 34.2197ZM150.312 40.7676L153.037 16.7588C153.066 16.5244 153.188 16.4023 153.403 16.3926L156.348 16.29C156.562 16.3096 156.67 16.4121 156.67 16.5977L156.377 18.5459C156.826 17.7744 157.314 17.1836 157.842 16.7734C158.379 16.3633 158.979 16.1582 159.644 16.1582C160.317 16.1582 160.889 16.2754 161.357 16.5098C161.826 16.7344 162.207 17.0371 162.5 17.418C162.803 17.7891 163.047 18.2383 163.232 18.7656C163.574 19.7031 163.745 20.9873 163.745 22.6182C163.745 24.2393 163.633 25.6162 163.408 26.749C163.193 27.8818 163.003 28.7461 162.837 29.3418C162.671 29.9277 162.446 30.5332 162.163 31.1582C161.89 31.7832 161.577 32.3057 161.226 32.7256C160.425 33.6826 159.482 34.1611 158.398 34.1611C157.314 34.1611 156.533 33.9316 156.055 33.4727C155.576 33.0137 155.166 32.3203 154.824 31.3926L153.96 40.665C153.95 40.8994 153.823 41.0215 153.579 41.0312L150.708 41.1338C150.444 41.124 150.312 41.002 150.312 40.7676ZM160.068 23.0283C160.068 20.7041 159.443 19.542 158.193 19.542C157.627 19.542 157.173 19.791 156.831 20.2891C156.499 20.7871 156.206 21.8076 155.952 23.3506C155.708 24.8936 155.586 26.002 155.586 26.6758C155.586 27.3398 155.591 27.7646 155.601 27.9502C155.61 28.126 155.63 28.3701 155.659 28.6826C155.688 28.9951 155.742 29.2539 155.82 29.459C155.898 29.6641 156.001 29.8691 156.128 30.0742C156.382 30.5039 156.792 30.7188 157.358 30.7188C157.925 30.7188 158.369 30.4697 158.691 29.9717C159.023 29.4736 159.282 28.7949 159.468 27.9355C159.868 26.0996 160.068 24.4639 160.068 23.0283ZM176.431 20.0254L174.863 19.8643C173.594 19.8643 172.529 20.1182 171.67 20.626L170.22 33.5459C170.181 33.79 170.059 33.9219 169.854 33.9414L166.895 34.0586C166.68 34.0391 166.572 33.9463 166.572 33.7803L168.506 16.7441C168.545 16.5293 168.667 16.4121 168.872 16.3926L171.729 16.29C171.992 16.2998 172.124 16.4268 172.124 16.6709L171.948 18.1797C172.573 17.5449 173.179 17.0518 173.765 16.7002C174.351 16.3389 174.937 16.1582 175.522 16.1582C176.118 16.1582 176.572 16.1826 176.885 16.2314C177.09 16.2705 177.192 16.4072 177.192 16.6416C177.192 17.3154 177.08 18.3164 176.855 19.6445C176.807 19.8984 176.665 20.0254 176.431 20.0254ZM179.155 31.2607C178.931 30.6748 178.774 30.0986 178.687 29.5322C178.608 28.9561 178.569 28.1699 178.569 27.1738C178.569 26.1777 178.677 24.9473 178.892 23.4824C179.604 18.5996 181.821 16.1582 185.542 16.1582C186.978 16.1582 188.076 16.6514 188.838 17.6377C189.6 18.624 189.98 19.9033 189.98 21.4756C189.98 23.0479 189.883 24.5762 189.688 26.0605C189.658 26.3242 189.507 26.4609 189.233 26.4707L181.997 26.7197C181.987 26.8662 181.982 27.0615 181.982 27.3057C181.982 28.4092 182.173 29.2832 182.554 29.9277C182.944 30.5723 183.53 30.8945 184.312 30.8945C185.093 30.8945 185.815 30.7822 186.479 30.5576C187.153 30.3232 187.549 30.2061 187.666 30.2061C187.783 30.2061 187.886 30.2451 187.974 30.3232C188.062 30.4014 188.105 30.5088 188.105 30.6455L187.812 33.2236C187.803 33.3701 187.773 33.4678 187.725 33.5166C187.686 33.5557 187.603 33.5996 187.476 33.6484C186.294 33.9902 185.156 34.1611 184.062 34.1611C182.969 34.1611 182.119 34.0293 181.514 33.7656C180.908 33.502 180.42 33.165 180.049 32.7549C179.687 32.335 179.39 31.8369 179.155 31.2607ZM182.349 23.043L182.217 23.9805L186.04 23.79C186.206 23.7803 186.313 23.751 186.362 23.7021C186.509 23.5557 186.582 23.1553 186.582 22.501C186.582 21.8369 186.558 21.373 186.509 21.1094C186.47 20.8359 186.396 20.5576 186.289 20.2744C186.064 19.6494 185.679 19.3369 185.132 19.3369C184.595 19.3369 184.17 19.4297 183.857 19.6152C183.164 20.0449 182.661 21.1875 182.349 23.043ZM205.786 16.6709L203.882 33.5605C203.853 33.8145 203.726 33.9463 203.501 33.9561L200.542 34.0586C200.337 34.0391 200.234 33.9463 200.234 33.7803L200.513 31.7881C200.063 32.5498 199.57 33.1357 199.033 33.5459C198.506 33.9561 197.91 34.1611 197.246 34.1611C196.582 34.1611 196.016 34.0488 195.547 33.8242C195.078 33.5898 194.692 33.2871 194.39 32.916C194.097 32.5352 193.857 32.0811 193.672 31.5537C193.33 30.6162 193.159 29.3369 193.159 27.7158C193.159 26.085 193.267 24.7031 193.481 23.5703C193.706 22.4375 193.901 21.5781 194.067 20.9922C194.233 20.3965 194.453 19.7861 194.727 19.1611C195.01 18.5361 195.327 18.0137 195.679 17.5938C196.479 16.6367 197.49 16.1582 198.711 16.1582C199.619 16.1582 200.312 16.3779 200.791 16.8174C201.27 17.2471 201.67 17.8867 201.992 18.7363L202.168 16.7441C202.187 16.5293 202.31 16.4121 202.534 16.3926L205.405 16.29C205.659 16.3096 205.786 16.4365 205.786 16.6709ZM196.851 27.291C196.851 29.625 197.476 30.792 198.726 30.792C199.272 30.792 199.717 30.543 200.059 30.0449C200.4 29.5371 200.693 28.5264 200.938 27.0127C201.191 25.499 201.318 24.3955 201.318 23.7021C201.318 23.0088 201.313 22.5693 201.304 22.3838C201.294 22.1982 201.274 21.9541 201.245 21.6514C201.216 21.3389 201.162 21.0801 201.084 20.875C201.006 20.6602 200.903 20.4453 200.776 20.2305C200.522 19.8105 200.112 19.6006 199.546 19.6006C198.979 19.6006 198.53 19.8545 198.198 20.3623C197.866 20.8604 197.607 21.5293 197.422 22.3691C197.041 24.166 196.851 25.8066 196.851 27.291ZM215.806 32.0078C214.917 33.4434 213.843 34.1611 212.583 34.1611C210.894 34.1611 209.736 33.292 209.111 31.5537C208.77 30.6162 208.599 29.3369 208.599 27.7158C208.599 26.085 208.706 24.7031 208.921 23.5703C209.146 22.4375 209.341 21.5781 209.507 20.9922C209.673 20.3965 209.893 19.7861 210.166 19.1611C210.449 18.5361 210.767 18.0137 211.118 17.5938C211.919 16.6367 212.93 16.1582 214.15 16.1582C215.049 16.1582 215.737 16.373 216.216 16.8027C216.694 17.2324 217.1 17.8721 217.432 18.7217L218.267 9.71289C218.296 9.45898 218.428 9.32715 218.662 9.31738L221.533 9.21484C221.777 9.24414 221.899 9.37598 221.899 9.61035L219.189 33.5605C219.16 33.8145 219.033 33.9463 218.809 33.9561L215.864 34.0586C215.659 34.0391 215.557 33.9463 215.557 33.7803L215.806 32.0078ZM212.29 27.291C212.29 29.625 212.915 30.792 214.165 30.792C214.712 30.792 215.156 30.543 215.498 30.0449C215.84 29.5371 216.133 28.5264 216.377 27.0127C216.631 25.499 216.758 24.3955 216.758 23.7021C216.758 23.0088 216.753 22.5693 216.743 22.3838C216.733 22.1982 216.714 21.9541 216.685 21.6514C216.655 21.3389 216.602 21.0801 216.523 20.875C216.445 20.6602 216.343 20.4453 216.216 20.2305C215.962 19.8105 215.552 19.6006 214.985 19.6006C214.419 19.6006 213.97 19.8545 213.638 20.3623C213.306 20.8604 213.047 21.5293 212.861 22.3691C212.48 24.166 212.29 25.8066 212.29 27.291ZM232.021 16.3486C232.246 14.2002 232.393 13.0918 232.461 13.0234C232.529 12.9453 232.632 12.9014 232.769 12.8916L235.566 12.7891C235.83 12.8086 235.962 12.9307 235.962 13.1553C235.776 14.2393 235.62 15.2793 235.493 16.2754L238.906 16.1582C239.141 16.168 239.258 16.2949 239.258 16.5391L238.848 18.8682C238.809 19.1025 238.687 19.2246 238.481 19.2344L235.127 19.3662C234.463 25.3428 234.131 28.6387 234.131 29.2539C234.131 30.3965 234.619 30.9678 235.596 30.9678C236.094 30.9678 236.577 30.8896 237.046 30.7334C237.515 30.5771 237.808 30.499 237.925 30.499C238.13 30.499 238.232 30.626 238.232 30.8799L237.925 33.4434C237.905 33.5898 237.866 33.6973 237.808 33.7656C237.759 33.834 237.52 33.917 237.09 34.0146C236.67 34.1123 235.947 34.1611 234.922 34.1611C233.418 34.1611 232.305 33.8145 231.582 33.1211C230.859 32.418 230.498 31.373 230.498 29.9863C230.498 28.5996 230.884 25.0742 231.655 19.4102L230.22 19.4688C229.976 19.459 229.854 19.3369 229.854 19.1025L230.249 16.7441C230.278 16.5195 230.405 16.4023 230.63 16.3926L232.021 16.3486ZM246.978 9.61035L246.055 17.8281C247.373 16.7148 248.716 16.1582 250.083 16.1582C251.724 16.1582 252.759 17.0566 253.188 18.8535C253.306 19.3418 253.364 19.8057 253.364 20.2451C253.364 20.6748 253.35 21.0215 253.32 21.2852L251.914 33.5605C251.875 33.8047 251.753 33.9365 251.548 33.9561L248.589 34.0586C248.374 34.0391 248.267 33.9463 248.267 33.7803L249.6 22.1787C249.629 21.9248 249.644 21.6953 249.644 21.4902C249.644 20.6895 249.453 20.1475 249.072 19.8643C248.701 19.5713 248.223 19.4248 247.637 19.4248C247.061 19.4248 246.46 19.5469 245.835 19.791L244.282 33.5605C244.243 33.8047 244.121 33.9365 243.916 33.9561L240.957 34.0586C240.742 34.0391 240.635 33.9463 240.635 33.7803L243.359 9.71289C243.379 9.57617 243.408 9.47852 243.447 9.41992C243.496 9.36133 243.589 9.32715 243.726 9.31738L246.597 9.21484C246.851 9.24414 246.978 9.37598 246.978 9.61035ZM257.231 31.2607C257.007 30.6748 256.851 30.0986 256.763 29.5322C256.685 28.9561 256.646 28.1699 256.646 27.1738C256.646 26.1777 256.753 24.9473 256.968 23.4824C257.681 18.5996 259.897 16.1582 263.618 16.1582C265.054 16.1582 266.152 16.6514 266.914 17.6377C267.676 18.624 268.057 19.9033 268.057 21.4756C268.057 23.0479 267.959 24.5762 267.764 26.0605C267.734 26.3242 267.583 26.4609 267.31 26.4707L260.073 26.7197C260.063 26.8662 260.059 27.0615 260.059 27.3057C260.059 28.4092 260.249 29.2832 260.63 29.9277C261.021 30.5723 261.606 30.8945 262.388 30.8945C263.169 30.8945 263.892 30.7822 264.556 30.5576C265.229 30.3232 265.625 30.2061 265.742 30.2061C265.859 30.2061 265.962 30.2451 266.05 30.3232C266.138 30.4014 266.182 30.5088 266.182 30.6455L265.889 33.2236C265.879 33.3701 265.85 33.4678 265.801 33.5166C265.762 33.5557 265.679 33.5996 265.552 33.6484C264.37 33.9902 263.232 34.1611 262.139 34.1611C261.045 34.1611 260.195 34.0293 259.59 33.7656C258.984 33.502 258.496 33.165 258.125 32.7549C257.764 32.335 257.466 31.8369 257.231 31.2607ZM260.425 23.043L260.293 23.9805L264.116 23.79C264.282 23.7803 264.39 23.751 264.438 23.7021C264.585 23.5557 264.658 23.1553 264.658 22.501C264.658 21.8369 264.634 21.373 264.585 21.1094C264.546 20.8359 264.473 20.5576 264.365 20.2744C264.141 19.6494 263.755 19.3369 263.208 19.3369C262.671 19.3369 262.246 19.4297 261.934 19.6152C261.24 20.0449 260.737 21.1875 260.425 23.043ZM283.306 11.5293L280.801 33.5898C280.771 33.8242 280.645 33.9463 280.42 33.9561L277.402 34.0586C277.188 34.0586 277.08 33.9658 277.08 33.7803L279.614 11.6172C279.653 11.4121 279.78 11.2998 279.995 11.2803L282.925 11.1777C283.179 11.1875 283.306 11.3047 283.306 11.5293ZM290.762 16.6709L290.601 18.0186C292.007 16.7783 293.354 16.1582 294.644 16.1582C296.284 16.1582 297.319 17.0566 297.749 18.8535C297.866 19.3418 297.925 19.8057 297.925 20.2451C297.925 20.6748 297.91 21.0215 297.881 21.2852L296.475 33.5605C296.436 33.8047 296.313 33.9365 296.108 33.9561L293.149 34.0586C292.935 34.0391 292.827 33.9463 292.827 33.7803L294.16 22.1787C294.189 21.9248 294.204 21.6953 294.204 21.4902C294.204 20.6895 294.014 20.1475 293.633 19.8643C293.262 19.5713 292.788 19.4248 292.212 19.4248C291.636 19.4248 291.035 19.5469 290.41 19.791L288.843 33.5605C288.804 33.8047 288.682 33.9365 288.477 33.9561L285.518 34.0586C285.303 34.0391 285.195 33.9463 285.195 33.7803L287.129 16.7441C287.168 16.5293 287.29 16.4121 287.495 16.3926L290.366 16.29C290.63 16.2998 290.762 16.4268 290.762 16.6709ZM308.413 32.0078C307.524 33.4434 306.45 34.1611 305.19 34.1611C303.501 34.1611 302.344 33.292 301.719 31.5537C301.377 30.6162 301.206 29.3369 301.206 27.7158C301.206 26.085 301.313 24.7031 301.528 23.5703C301.753 22.4375 301.948 21.5781 302.114 20.9922C302.28 20.3965 302.5 19.7861 302.773 19.1611C303.057 18.5361 303.374 18.0137 303.726 17.5938C304.526 16.6367 305.537 16.1582 306.758 16.1582C307.656 16.1582 308.345 16.373 308.823 16.8027C309.302 17.2324 309.707 17.8721 310.039 18.7217L310.874 9.71289C310.903 9.45898 311.035 9.32715 311.27 9.31738L314.141 9.21484C314.385 9.24414 314.507 9.37598 314.507 9.61035L311.797 33.5605C311.768 33.8145 311.641 33.9463 311.416 33.9561L308.472 34.0586C308.267 34.0391 308.164 33.9463 308.164 33.7803L308.413 32.0078ZM304.897 27.291C304.897 29.625 305.522 30.792 306.772 30.792C307.319 30.792 307.764 30.543 308.105 30.0449C308.447 29.5371 308.74 28.5264 308.984 27.0127C309.238 25.499 309.365 24.3955 309.365 23.7021C309.365 23.0088 309.36 22.5693 309.351 22.3838C309.341 22.1982 309.321 21.9541 309.292 21.6514C309.263 21.3389 309.209 21.0801 309.131 20.875C309.053 20.6602 308.95 20.4453 308.823 20.2305C308.569 19.8105 308.159 19.6006 307.593 19.6006C307.026 19.6006 306.577 19.8545 306.245 20.3623C305.913 20.8604 305.654 21.5293 305.469 22.3691C305.088 24.166 304.897 25.8066 304.897 27.291ZM320.088 14.6934C319.482 14.6934 318.999 14.5029 318.638 14.1221C318.276 13.7412 318.096 13.2529 318.096 12.6572C318.096 12.0518 318.335 11.5146 318.813 11.0459C319.302 10.5674 319.849 10.3281 320.454 10.3281C321.06 10.3281 321.548 10.5186 321.919 10.8994C322.3 11.2803 322.49 11.7734 322.49 12.3789C322.49 12.9746 322.241 13.5117 321.743 13.9902C321.245 14.459 320.693 14.6934 320.088 14.6934ZM321.714 16.6709L319.81 33.5605C319.79 33.6973 319.756 33.7949 319.707 33.8535C319.658 33.9121 319.565 33.9463 319.429 33.9561L316.484 34.0586C316.27 34.0391 316.162 33.9463 316.162 33.7803L318.096 16.7441C318.135 16.5293 318.257 16.4121 318.462 16.3926L321.318 16.29C321.582 16.3096 321.714 16.4365 321.714 16.6709ZM325.112 31.2607C324.888 30.6748 324.731 30.0986 324.644 29.5322C324.565 28.9561 324.526 28.1699 324.526 27.1738C324.526 26.1777 324.634 24.9473 324.849 23.4824C325.562 18.5996 327.778 16.1582 331.499 16.1582C332.935 16.1582 334.033 16.6514 334.795 17.6377C335.557 18.624 335.938 19.9033 335.938 21.4756C335.938 23.0479 335.84 24.5762 335.645 26.0605C335.615 26.3242 335.464 26.4609 335.19 26.4707L327.954 26.7197C327.944 26.8662 327.939 27.0615 327.939 27.3057C327.939 28.4092 328.13 29.2832 328.511 29.9277C328.901 30.5723 329.487 30.8945 330.269 30.8945C331.05 30.8945 331.772 30.7822 332.437 30.5576C333.11 30.3232 333.506 30.2061 333.623 30.2061C333.74 30.2061 333.843 30.2451 333.931 30.3232C334.019 30.4014 334.062 30.5088 334.062 30.6455L333.77 33.2236C333.76 33.3701 333.73 33.4678 333.682 33.5166C333.643 33.5557 333.56 33.5996 333.433 33.6484C332.251 33.9902 331.113 34.1611 330.02 34.1611C328.926 34.1611 328.076 34.0293 327.471 33.7656C326.865 33.502 326.377 33.165 326.006 32.7549C325.645 32.335 325.347 31.8369 325.112 31.2607ZM328.306 23.043L328.174 23.9805L331.997 23.79C332.163 23.7803 332.271 23.751 332.319 23.7021C332.466 23.5557 332.539 23.1553 332.539 22.501C332.539 21.8369 332.515 21.373 332.466 21.1094C332.427 20.8359 332.354 20.5576 332.246 20.2744C332.021 19.6494 331.636 19.3369 331.089 19.3369C330.552 19.3369 330.127 19.4297 329.814 19.6152C329.121 20.0449 328.618 21.1875 328.306 23.043ZM350.791 33.7803L349.561 16.2461L348.462 33.5752C348.442 33.8193 348.315 33.9463 348.081 33.9561L345.283 34.0586C345.068 34.0391 344.961 33.9463 344.961 33.7803L347.48 11.6172C347.5 11.5 347.529 11.417 347.568 11.3682C347.617 11.3193 347.715 11.29 347.861 11.2803L351.553 11.1484C351.787 11.1582 351.914 11.2754 351.934 11.5L353.267 29.1367L358.35 11.6172C358.398 11.4023 358.535 11.29 358.76 11.2803L362.612 11.1484C362.856 11.1582 362.979 11.2754 362.979 11.5L360.488 33.5898C360.459 33.8242 360.327 33.9463 360.093 33.9561L357.075 34.0586C356.87 34.0586 356.768 33.9658 356.768 33.7803L359.624 15.9238L354.38 33.6045C354.302 33.8291 354.16 33.9463 353.955 33.9561L351.113 34.0586C350.918 34.0391 350.811 33.9463 350.791 33.7803ZM372.544 33.6924L372.661 32.5645C371.479 33.6289 370.142 34.1611 368.647 34.1611C367.524 34.1611 366.694 33.751 366.157 32.9307C365.63 32.1104 365.366 31.085 365.366 29.8545C365.366 29.6494 365.386 29.3711 365.425 29.0195L366.816 16.7588C366.846 16.5244 366.968 16.4023 367.183 16.3926L370.142 16.2754C370.347 16.2949 370.449 16.3975 370.449 16.583L369.131 28.1406C369.102 28.3945 369.087 28.6289 369.087 28.8438C369.087 29.6641 369.243 30.2109 369.556 30.4844C369.878 30.7578 370.356 30.8945 370.991 30.8945C371.636 30.8945 372.271 30.7725 372.896 30.5283L374.448 16.7588C374.478 16.5244 374.6 16.4023 374.814 16.3926L377.773 16.29C377.979 16.3096 378.081 16.4121 378.081 16.5977L376.177 33.5459C376.147 33.7803 376.016 33.9072 375.781 33.9268L372.925 34.0586C372.671 34.0488 372.544 33.9268 372.544 33.6924ZM388.54 19.7031L386.885 19.6299C386.416 19.6299 386.045 19.7373 385.771 19.9521C385.508 20.167 385.376 20.4795 385.376 20.8896C385.376 21.29 385.449 21.7344 385.596 22.2227C385.791 22.877 386.128 23.6387 386.606 24.5078C387.095 25.377 387.432 25.9922 387.617 26.3535C388.184 27.4766 388.467 28.5459 388.467 29.5615C388.467 31.0361 388.032 32.1738 387.163 32.9746C386.304 33.7656 384.995 34.1611 383.237 34.1611C382.368 34.1611 381.675 34.1123 381.157 34.0146C380.64 33.9268 380.352 33.8584 380.293 33.8096C380.244 33.751 380.22 33.6631 380.22 33.5459L380.601 30.8359C380.62 30.5918 380.703 30.4697 380.85 30.4697C381.006 30.4697 381.299 30.5234 381.729 30.6309C382.158 30.7383 382.534 30.792 382.856 30.792C384.048 30.792 384.644 30.3184 384.644 29.3711C384.644 28.6973 384.497 28.0674 384.204 27.4814C383.921 26.8955 383.608 26.29 383.267 25.665C382.935 25.04 382.676 24.542 382.49 24.1709C382.305 23.79 382.109 23.2676 381.904 22.6035C381.709 21.9395 381.611 21.3145 381.611 20.7285C381.611 19.3613 382.017 18.2578 382.827 17.418C383.647 16.5781 384.839 16.1582 386.401 16.1582C387.407 16.1582 388.193 16.207 388.76 16.3047C389.004 16.3437 389.126 16.4707 389.126 16.6855L388.804 19.293C388.804 19.5664 388.716 19.7031 388.54 19.7031ZM395.41 14.6934C394.805 14.6934 394.321 14.5029 393.96 14.1221C393.599 13.7412 393.418 13.2529 393.418 12.6572C393.418 12.0518 393.657 11.5146 394.136 11.0459C394.624 10.5674 395.171 10.3281 395.776 10.3281C396.382 10.3281 396.87 10.5186 397.241 10.8994C397.622 11.2803 397.812 11.7734 397.812 12.3789C397.812 12.9746 397.563 13.5117 397.065 13.9902C396.567 14.459 396.016 14.6934 395.41 14.6934ZM397.036 16.6709L395.132 33.5605C395.112 33.6973 395.078 33.7949 395.029 33.8535C394.98 33.9121 394.888 33.9463 394.751 33.9561L391.807 34.0586C391.592 34.0391 391.484 33.9463 391.484 33.7803L393.418 16.7441C393.457 16.5293 393.579 16.4121 393.784 16.3926L396.641 16.29C396.904 16.3096 397.036 16.4365 397.036 16.6709ZM409.985 16.6123C410.2 16.6904 410.308 16.876 410.308 17.1689L409.971 19.8203C409.951 20.0156 409.814 20.1133 409.561 20.1133C409.316 20.1133 409.082 20.0645 408.857 19.9668C407.91 19.5469 407.124 19.3369 406.499 19.3369C405.874 19.3369 405.376 19.5957 405.005 20.1133C404.634 20.6309 404.336 21.373 404.111 22.3398C403.691 24.1465 403.481 25.7969 403.481 27.291C403.481 29.6934 404.102 30.8945 405.342 30.8945C406.24 30.8945 406.968 30.7822 407.524 30.5576C408.081 30.3232 408.442 30.2061 408.608 30.2061C408.95 30.2061 409.121 30.3525 409.121 30.6455L408.813 33.2236C408.794 33.3994 408.755 33.5068 408.696 33.5459C408.647 33.5752 408.579 33.6094 408.491 33.6484C407.31 33.9902 406.196 34.1611 405.151 34.1611C404.116 34.1611 403.296 34.0293 402.69 33.7656C402.095 33.502 401.621 33.165 401.27 32.7549C400.918 32.335 400.635 31.832 400.42 31.2461C400.039 30.2402 399.849 29.0049 399.849 27.54C399.849 26.0654 399.941 24.7861 400.127 23.7021C400.322 22.6084 400.522 21.7197 400.728 21.0361C400.942 20.3525 401.226 19.6982 401.577 19.0732C401.929 18.4385 402.339 17.916 402.808 17.5059C403.833 16.6074 405.19 16.1582 406.88 16.1582C408.013 16.1582 409.048 16.3096 409.985 16.6123Z" transform="translate(0 88)" fill="#F2F2F2"/>
<path d="M8.8625 77.7031C8.08125 77.7031 7.69063 77.3281 7.69063 76.5781L8.8625 66.7812C8.9875 66.0937 9.39375 65.7187 10.0813 65.6562C14.9563 65.1562 18.175 64.3906 19.7375 63.3594C21.3 62.2969 22.0813 60.2031 22.0813 57.0781C22.0813 53.9531 21.2844 49.8906 19.6906 44.8906C18.0969 39.8594 17.0656 36.5156 16.5969 34.8594C15.0969 29.5469 14.3469 25.2031 14.3469 21.8281C14.3469 18.4219 14.8938 15.5156 15.9875 13.1094C17.0813 10.7031 18.6438 8.78125 20.675 7.34375C24.6125 4.59375 29.9094 3.21875 36.5656 3.21875C37.4094 3.21875 37.8313 3.60938 37.8313 4.39062L36.5656 14.0938C36.4406 14.875 36.05 15.2969 35.3938 15.3594C29.3313 15.7656 26.3 17.5625 26.3 20.75C26.3 23.6875 27.5813 29.4688 30.1438 38.0938C32.7375 46.6875 34.0344 52.8438 34.0344 56.5625C34.0344 70.6563 25.6438 77.7031 8.8625 77.7031ZM88.3813 33.2656C85.6938 43.6719 77.2875 48.8906 63.1625 48.9219L60.2094 75.5C60.1156 76.25 59.725 76.6406 59.0375 76.6719L49.1938 77.1875C48.5063 77.125 48.1625 76.8281 48.1625 76.2969L56.2719 5.375C56.3969 4.71875 56.8031 4.35938 57.4906 4.29688C63.3344 3.76562 68.9125 3.5 74.225 3.5C84.7875 3.5 90.0688 8.5625 90.0688 18.6875C90.0688 24.2188 89.5063 29.0781 88.3813 33.2656ZM67.0063 14.4219L64.3344 38.0938C69.7406 38.0938 73.3813 36.9688 75.2563 34.7188C77.1313 32.4688 78.0688 28.0937 78.0688 21.5938C78.0688 19.0937 77.3969 17.25 76.0531 16.0625C74.7094 14.875 72.9906 14.2812 70.8969 14.2812C68.8031 14.2812 67.5063 14.3281 67.0063 14.4219ZM140.853 75.875C140.853 76.5 140.431 76.8125 139.588 76.8125L129.041 77.1875C128.572 77.1562 128.228 76.8594 128.009 76.2969L116.244 46.4844L112.963 75.6875C112.869 76.4375 112.478 76.8281 111.791 76.8594L101.994 77.1875C101.306 77.125 100.963 76.8281 100.963 76.2969L109.072 5.75C109.134 5.1875 109.275 4.8125 109.494 4.625C109.713 4.40625 111.369 4.17188 114.463 3.92188C117.556 3.64062 121.681 3.5 126.838 3.5C131.994 3.5 135.963 4.875 138.744 7.625C141.556 10.3438 142.963 13.8594 142.963 18.1719C142.963 22.4844 142.447 26.2969 141.416 29.6094C140.384 32.8906 138.681 35.8438 136.306 38.4688C133.931 41.0938 130.963 43.0469 127.4 44.3281L140.713 75.3125C140.806 75.5 140.853 75.6875 140.853 75.875ZM119.853 14.4219L117.228 37.7188C123.009 37.375 126.994 34.75 129.181 29.8438C130.369 27.1562 130.963 24.4375 130.963 21.6875C130.963 18.9062 130.384 16.9688 129.228 15.875C128.103 14.75 126.463 14.1875 124.306 14.1875C122.15 14.1875 120.666 14.2656 119.853 14.4219ZM174.059 5.09375L166.044 75.6875C165.95 76.4375 165.544 76.8281 164.825 76.8594L155.169 77.1875C154.481 77.1875 154.137 76.8906 154.137 76.2969L162.247 5.375C162.372 4.71875 162.778 4.35938 163.466 4.29688L172.841 3.96875C173.653 4 174.059 4.375 174.059 5.09375ZM229.812 4.90625L221.75 75.5C221.625 76.2188 221.219 76.6094 220.531 76.6719L211.25 77.1875C210.719 77.1875 210.406 76.8906 210.312 76.2969L200.469 26.2344L197 75.6875C196.969 76.4375 196.562 76.8281 195.781 76.8594L186.125 77.1875C185.438 77.1875 185.094 76.8906 185.094 76.2969L193.203 5.375C193.328 4.71875 193.734 4.35938 194.422 4.29688L203.938 3.78125C204.375 3.78125 204.656 3.875 204.781 4.0625C204.937 4.21875 205.062 4.5 205.156 4.90625L214.672 52.2031L217.953 5.375C217.984 4.6875 218.406 4.32812 219.219 4.29688L228.547 3.78125C229.391 3.78125 229.812 4.15625 229.812 4.90625ZM248.909 5.375C248.972 5 249.081 4.73438 249.238 4.57812C249.394 4.42187 250.972 4.20312 253.972 3.92188C256.972 3.64062 261.081 3.5 266.3 3.5C271.55 3.5 275.581 5.01563 278.394 8.04688C281.206 11.0469 282.613 15.1719 282.613 20.4219C282.613 30.3281 281.503 41.7344 279.284 54.6406C278.097 61.4844 276.175 66.5781 273.519 69.9219C271.081 72.9844 267.269 75 262.081 75.9688C259.738 76.375 256.878 76.6406 253.503 76.7656L241.831 77.1875C241.144 77.1562 240.8 76.8594 240.8 76.2969L248.909 5.375ZM259.644 14.4219L253.925 65.4688C258.581 65.0625 261.8 64.1562 263.581 62.75C265.394 61.3438 266.659 58.6719 267.378 54.7344C268.097 50.7969 268.8 45.4219 269.488 38.6094C270.206 31.7969 270.566 26.2187 270.566 21.875C270.566 19.3125 269.941 17.4062 268.691 16.1562C267.441 14.9063 265.738 14.2812 263.581 14.2812C261.456 14.2812 260.144 14.3281 259.644 14.4219ZM315.116 5.09375L307.1 75.6875C307.006 76.4375 306.6 76.8281 305.881 76.8594L296.225 77.1875C295.537 77.1875 295.194 76.8906 295.194 76.2969L303.303 5.375C303.428 4.71875 303.834 4.35938 304.522 4.29688L313.897 3.96875C314.709 4 315.116 4.375 315.116 5.09375ZM356.056 44.9375L341.478 45.5L339.275 64.7188L357.228 64.1094C358.041 64.1406 358.447 64.5469 358.447 65.3281L357.228 75.0312C357.166 75.6875 356.759 76.0937 356.009 76.25L327.181 77.1875C326.494 77.1875 326.15 76.8906 326.15 76.2969L334.259 5.375C334.384 4.71875 334.791 4.35938 335.478 4.29688L361.166 3.40625C361.947 3.5 362.338 3.92188 362.338 4.67188L361.166 14.375C361.072 15.1562 360.666 15.5781 359.947 15.6406L344.853 16.0625L342.838 33.5L357.275 32.9844C358.088 33.0156 358.494 33.4219 358.494 34.2031L357.275 43.7656C357.15 44.4844 356.744 44.875 356.056 44.9375Z" transform="translate(136)" fill="#E8DF0F"/>
<path d="M0 41.0891C0 18.4114 18.4114 0 41.0891 0C63.7669 0 82.1783 18.4114 82.1783 41.0891C82.1783 63.7668 63.7669 82.1782 41.0891 82.1782C18.4114 82.1782 0 63.7668 0 41.0891Z" transform="translate(40.4109 0.410858)" fill="#E8DF0F"/>
<path d="M0.821756 41.5C0.821756 19.0492 19.0492 0.821755 41.5 0.821755V-3.70231e-10C18.5954 -3.70231e-10 -3.70231e-10 18.5954 -3.70231e-10 41.5H0.821756ZM41.5 0.821755C63.9508 0.821755 82.1782 19.0492 82.1782 41.5H83C83 18.5954 64.4047 -3.70231e-10 41.5 -3.70231e-10V0.821755ZM82.1782 41.5C82.1782 63.9508 63.9508 82.1782 41.5 82.1782V83C64.4047 83 83 64.4046 83 41.5H82.1782ZM41.5 82.1782C19.0492 82.1782 0.821756 63.9508 0.821756 41.5H-3.70231e-10C-3.70231e-10 64.4046 18.5954 83 41.5 83V82.1782Z" transform="translate(40)" fill="#E8DF0F"/>
<path d="M6.0875 12.5134L6.567 12.4387L5.61058 12.4239L6.0875 12.5134ZM12.8927 56.2067L12.4132 56.2813L13.3746 56.2643L12.8927 56.2067ZM19.6001 0.0575597L20.0823 0.00293695L19.1184 2.85263e-09L19.6001 0.0575597ZM26.7685 63.3367L26.2864 63.3913L27.2481 63.4109L26.7685 63.3367ZM35.1608 9.13209L35.641 9.06224L34.6813 9.05785L35.1608 9.13209ZM41.0616 49.7006L40.5814 49.7705L41.532 49.8197L41.0616 49.7006ZM0.953848 42.4626L6.56443 12.603L5.61058 12.4239L-4.65011e-09 42.2835L0.953848 42.4626ZM5.60802 12.5881L12.4132 56.2813L13.3722 56.132L6.567 12.4387L5.60802 12.5881ZM13.3746 56.2643L20.082 0.115119L19.1184 2.85263e-09L12.4109 56.1491L13.3746 56.2643ZM19.118 0.112182L26.2864 63.3913L27.2507 63.282L20.0823 0.00293695L19.118 0.112182ZM27.2481 63.4109L35.6403 9.20634L34.6813 9.05785L26.289 63.2624L27.2481 63.4109ZM34.6806 9.20194L40.5814 49.7705L41.5418 49.6307L35.641 9.06224L34.6806 9.20194ZM41.532 49.8197L44.1363 39.532L43.1955 39.2938L40.5912 49.5815L41.532 49.8197Z" transform="translate(57.6346 10.0587)" fill="#252525"/>
<path d="M0.627909 39.9101C0.209306 39.9101 -4.91667e-08 39.7092 -4.91667e-08 39.3073L0.627909 34.058C0.694886 33.6896 0.912568 33.4887 1.28095 33.4552C3.89305 33.1873 5.61772 32.7771 6.45493 32.2244C7.29215 31.6551 7.71076 30.5333 7.71076 28.8589C7.71076 27.1844 7.28377 25.0077 6.42982 22.3285C5.57586 19.6327 5.02329 17.8411 4.77213 16.9537C3.96841 14.1071 3.56654 11.7796 3.56654 9.97122C3.56654 8.14612 3.85957 6.58889 4.44562 5.29963C5.03167 4.01027 5.86888 2.98053 6.95727 2.21021C9.06709 0.736737 11.9052 3.55422e-08 15.4718 3.55422e-08C15.9238 3.55422e-08 16.1499 0.209307 16.1499 0.627939L15.4718 5.82702C15.4048 6.24562 15.1955 6.47165 14.8438 6.50514C11.5954 6.72283 9.97124 7.6856 9.97124 9.39356C9.97124 10.9676 10.6578 14.0652 12.0308 18.6867C13.4205 23.2914 14.1154 26.59 14.1154 28.5826C14.1154 36.1343 9.61962 39.9101 0.627909 39.9101Z" transform="translate(49.3315 62.2317) scale(1.693) rotate(-97.6549)" fill="#E8DF0F"/>
<path d="M0.627909 39.9101C0.209306 39.9101 -4.91667e-08 39.7092 -4.91667e-08 39.3073L0.627909 34.058C0.694886 33.6896 0.912568 33.4887 1.28095 33.4552C3.89305 33.1873 5.61772 32.7771 6.45493 32.2244C7.29215 31.6551 7.71076 30.5333 7.71076 28.8589C7.71076 27.1844 7.28377 25.0077 6.42982 22.3285C5.57586 19.6327 5.02329 17.8411 4.77213 16.9537C3.96841 14.1071 3.56654 11.7796 3.56654 9.97122C3.56654 8.14612 3.85957 6.58889 4.44562 5.29963C5.03167 4.01027 5.86888 2.98053 6.95727 2.21021C9.06709 0.736737 11.9052 3.55422e-08 15.4718 3.55422e-08C15.9238 3.55422e-08 16.1499 0.209307 16.1499 0.627939L15.4718 5.82702C15.4048 6.24562 15.1955 6.47165 14.8438 6.50514C11.5954 6.72283 9.97124 7.6856 9.97124 9.39356C9.97124 10.9676 10.6578 14.0652 12.0308 18.6867C13.4205 23.2914 14.1154 26.59 14.1154 28.5826C14.1154 36.1343 9.61962 39.9101 0.627909 39.9101Z" transform="translate(47.1819 65.8693) scale(1.693) rotate(-97.6549)" fill="#E8DF0F"/>
<path d="M0.627909 39.9101C0.209306 39.9101 -4.91667e-08 39.7092 -4.91667e-08 39.3073L0.627909 34.058C0.694886 33.6896 0.912568 33.4887 1.28095 33.4552C3.89305 33.1873 5.61772 32.7771 6.45493 32.2244C7.29215 31.6551 7.71076 30.5333 7.71076 28.8589C7.71076 27.1844 7.28377 25.0077 6.42982 22.3285C5.57586 19.6327 5.02329 17.8411 4.77213 16.9537C3.96841 14.1071 3.56654 11.7796 3.56654 9.97122C3.56654 8.14612 3.85957 6.58889 4.44562 5.29963C5.03167 4.01027 5.86888 2.98053 6.95727 2.21021C9.06709 0.736737 11.9052 3.55422e-08 15.4718 3.55422e-08C15.9238 3.55422e-08 16.1499 0.209307 16.1499 0.627939L15.4718 5.82702C15.4048 6.24561 15.1955 6.47165 14.8438 6.50514C11.5954 6.72283 9.97124 7.6856 9.97124 9.39356C9.97124 10.9676 10.6578 14.0652 12.0308 18.6867C13.4205 23.2914 14.1154 26.59 14.1154 28.5826C14.1154 36.1342 9.61962 39.9101 0.627909 39.9101Z" transform="translate(48.4595 63.7874) scale(1.693) rotate(-97.6588)" fill="#252525"/>
<path d="M0.963577 17.5372L3.06164 0.116045L2.09806 1.49832e-09L7.30096e-09 17.4211L0.963577 17.5372Z" transform="translate(71.7269 34.4188)" fill="#252525"/>
<path d="M0.963563 17.5293L3.0628 0.116162L2.09924 -1.75008e-09L1.65271e-08 17.4131L0.963563 17.5293Z" transform="matrix(0.997003 0.0773597 -0.0628273 0.998024 59.0529 33.5109)" fill="#252525"/>
<path d="M0.964015 20.0549L3.28798 0.112339L2.32397 1.18918e-09L-1.28989e-08 19.9425L0.964015 20.0549Z" transform="matrix(0.998991 0.0449152 -0.0364528 0.999335 88.2024 30.4119)" fill="#252525"/>
<path d="M0.959906 14.2856L3.07064 0.143266L2.11074 8.37462e-10L6.21989e-10 14.1423L0.959906 14.2856Z" transform="matrix(0.999911 -0.0133769 0.0109645 0.99994 71.0157 42.6904)" fill="#252525"/>
<path d="M1.95759 1.14994e-09L-1.0596e-08 11.5427L0.574127 11.6401L2.53172 0.0973691L1.95759 1.14994e-09Z" transform="matrix(0.999788 -0.0205638 0.0195338 0.999809 87.7803 31.1613)" fill="#E8DF0F"/>
<path d="M1.86775 -4.85188e-10L1.08034e-08 11.5407L0.574845 11.6338L2.44259 0.0930325L1.86775 -4.85188e-10Z" transform="matrix(0.998874 -0.0474601 0.0389133 0.999242 71.1677 34.728)" fill="#E8DF0F"/>
<path d="M1.86738 7.00292e-10L8.16731e-09 11.5426L0.574849 11.6356L2.44224 0.0930001L1.86738 7.00292e-10Z" transform="matrix(0.999968 -0.00801505 0.0105659 0.999944 57.8722 37.7476)" fill="#E8DF0F"/>
<path d="M6.41981e-09 0.236724C0.301667 0.775922 0.906679 2.16066 0.93981 3.47365L1.42488 3.45979C1.38037 2.05528 0.736621 0.560745 0.423613 -1.31432e-09L6.41981e-09 0.236724Z" transform="translate(100.652 48.9165)" fill="#E8DF0F"/>
</svg>
